<?xml version="1.0" encoding="utf-8"?>
<!-- Generator: Adobe Illustrator 21.0.0, SVG Export Plug-In . SVG Version: 6.00 Build 0)  -->
<svg version="1.1" id="Layer_1" xmlns="http://www.w3.org/2000/svg" xmlns:xlink="http://www.w3.org/1999/xlink" x="0px" y="0px"
	 viewBox="0 0 256 256" style="enable-background:new 0 0 256 256;" xml:space="preserve">
<style type="text/css">
	.st0{fill:none;}
	.st1{display:none;}
	.st2{display:inline;}
	.st3{fill:#FFFFFF;}
</style>
<g>
	<rect class="st0" width="256" height="256"/>
</g>
<g id="Handset" class="st1">
	<g class="st2">
		<path class="st3" d="M161.9,160.6l-21.2-21.2c-3.9-3.9-10.2-3.9-14.1,0l-2.9,2.9l-2.9-2.9V77.5c5.5,0,10-4.5,10-10v-30
			c0-5.5-4.5-10-10-10l0,0c-2.5,0-4.7,0.9-6.4,2.3c-0.8-0.2-1.6-0.3-2.4-0.3l0,0c-8.5,0-15.5,6.6-15.9,15.1l-4.9,93.5
			c-0.2,3.6,1.4,6.9,4.2,9l39.4,40.4c3.9,3.9,10.2,3.9,14.1,0l2.9-2.9c1.2-1.2,2.1-2.7,2.5-4.3c1.7-0.4,3.4-1.3,4.7-2.6l2.9-2.9
			C165.8,170.8,165.8,164.5,161.9,160.6z"/>
		<path class="st3" d="M108.8,167.3v-10.6c0-0.7-0.5-1.2-1.2-1.2H104c-0.7,0-1.2,0.5-1.2,1.2v10.6c0,0.7,0.5,1.2,1.2,1.2h3.6
			C108.2,168.5,108.8,167.9,108.8,167.3z"/>
		<path class="st3" d="M107.8,168.5l-3.9,58.4c-0.1,0.9-0.8,1.6-1.7,1.6h-0.7c-1,0-1.7-0.8-1.7-1.8l3.9-58.2H107.8L107.8,168.5z"/>
	</g>
</g>
<g>
	<g>
		<g>
			<g>
				<path class="st3" d="M95.7,216.4c2.9,11.1,8.9,19.6,17.9,25.3l-4.8,7.5c-11-6.9-18.4-17.3-21.7-30.5L95.7,216.4z"/>
			</g>
			<g>
				<g>
					<path class="st3" d="M62.2,189.3l5.3-23.7c1.6-7.4,6.1-13.8,12.6-18c6.5-4,14.2-5.4,21.7-3.8l2.4,0.6
						c10.3,2.4,18.6,10.1,21.4,20.3c1.3,4.5,1.4,9.4,0.4,14l-5.3,23.7c-1.6,7.4-6.1,13.8-12.6,18c-6.5,4-14.2,5.4-21.7,3.8l-2.4-0.6
						c-10.3-2.4-18.6-10.1-21.4-20.3C61.2,198.7,61.1,193.9,62.2,189.3z M100.7,158.3l-1.9-0.5c-4.5-0.9-9-0.1-12.8,2.3
						c-3.9,2.4-6.6,6.3-7.5,10.6l-4.2,18.6c-0.6,2.7-0.5,5.6,0.2,8.3c1.7,6,6.6,10.5,12.7,11.9l1.9,0.5c4.5,0.9,9,0.1,12.8-2.3
						c3.9-2.4,6.6-6.3,7.5-10.6l4.2-18.6c0.6-2.7,0.5-5.6-0.2-8.3C111.7,164.2,106.8,159.6,100.7,158.3z"/>
				</g>
			</g>
			<g>
				
					<ellipse transform="matrix(0.9999 -1.519985e-02 1.519985e-02 0.9999 -3.7168 1.7501)" class="st3" cx="113.3" cy="245.4" rx="8.2" ry="8.2"/>
			</g>
		</g>
		<g>
			<path class="st3" d="M95.9,115.3l-8.3,35.5l10.8-1.6l5.9-25.7c0.2-1,1.3-1.8,2.3-1.5l4.7,1.1c0.7,0.2,1.2,0.7,1.4,1.4
				c0.1,0.4,0.1,0.7,0,1l-5.9,25.6l9.4,5.9l8.2-35.1c1.3-5.5-2.5-11.7-8.1-12.9l-7.7-1.7C102.8,105.8,97.1,109.4,95.9,115.3z"/>
		</g>
	</g>
	<g>
		<path class="st3" d="M86,88.1c0.3,1.5,1.7,2.6,3.3,2.3c18.6-2.8,38.3,2.9,52.7,17.2c14.3,14.3,20.1,34,17.2,52.7
			c-0.2,1.5,0.8,3,2.3,3.3l7.6,1.5c1.7,0.3,3.2-0.8,3.5-2.5c3.6-22.9-3.4-47.1-21-64.7s-41.8-24.6-64.7-21c-1.7,0.3-2.8,1.8-2.5,3.5
			L86,88.1z"/>
		<path class="st3" d="M74,56c0.3,1.6,1.8,2.6,3.4,2.3c30.5-5.1,62.9,4,86.4,27.5s32.6,55.9,27.5,86.4c-0.3,1.6,0.7,3.1,2.3,3.4
			l7.6,1.5c1.6,0.3,3.2-0.7,3.5-2.3c6-34.8-4.5-71.8-31.2-98.6C146.7,49.4,109.6,39,74.9,44.9c-1.6,0.3-2.7,1.9-2.3,3.5L74,56z"/>
		<path class="st3" d="M62.1,23.9c0.3,1.6,1.8,2.6,3.4,2.3c42.4-7.5,87.6,5.1,120.2,37.8c32.7,32.7,45.2,77.9,37.8,120.2
			c-0.3,1.6,0.7,3.1,2.3,3.4l7.6,1.5c1.6,0.3,3.2-0.7,3.5-2.3c8.3-46.7-5.5-96.5-41.5-132.5S109.5,4.5,62.9,12.8
			c-1.6,0.3-2.7,1.9-2.3,3.5L62.1,23.9z"/>
	</g>
</g>
<g class="st1">
	<path class="st2" d="M88.8,155.6c0.9,0.6,2.2,0.4,2.9-0.5c8.2-11.1,21.4-18.4,36.3-18.4c14.9,0,28.1,7.2,36.3,18.4
		c0.7,0.9,2,1.1,2.9,0.5l4.7-3.2c1-0.7,1.3-2.1,0.5-3.1c-10-13.7-26.2-22.6-44.4-22.6s-34.4,8.9-44.4,22.6c-0.7,1-0.5,2.4,0.5,3.1
		L88.8,155.6z"/>
	<path class="st2" d="M65.9,140.3c1,0.7,2.3,0.4,3-0.6c13.2-18.5,34.7-30.6,59.1-30.6s45.9,12.1,59.1,30.6c0.7,1,2,1.2,3,0.6
		l4.7-3.2c1-0.7,1.3-2,0.6-3c-15-21.1-39.6-35-67.4-35c-27.8,0-52.4,13.8-67.4,35c-0.7,1-0.4,2.3,0.6,3L65.9,140.3z"/>
	<path class="st2" d="M43.1,125.1c1,0.7,2.3,0.4,3-0.6c18.1-25.9,48.1-42.8,82-42.8c33.9,0,63.9,16.9,82,42.8c0.7,1,2,1.2,3,0.6
		l4.7-3.2c1-0.7,1.3-2,0.6-3c-19.9-28.5-52.9-47.2-90.3-47.2s-70.4,18.7-90.3,47.2c-0.7,1-0.4,2.3,0.6,3L43.1,125.1z"/>
	<circle class="st2" cx="128" cy="171.4" r="12"/>
</g>
</svg>
