<?xml version="1.0" encoding="utf-8"?>
<!-- Generator: Adobe Illustrator 21.0.0, SVG Export Plug-In . SVG Version: 6.00 Build 0)  -->
<svg version="1.1" id="Layer_1" xmlns="http://www.w3.org/2000/svg" xmlns:xlink="http://www.w3.org/1999/xlink" x="0px" y="0px"
	 viewBox="0 0 256 256" style="enable-background:new 0 0 256 256;" xml:space="preserve">
<style type="text/css">
	.st0{fill:none;}
	.st1{fill:#FFFFFF;}
</style>
<g>
	<rect class="st0" width="256" height="256"/>
</g>
<g id="Handset">
	<g>
		<path class="st1" d="M115.5,144.3l-21.2-21.2c-3.9-3.9-10.2-3.9-14.1,0l-2.9,2.9l-2.9-2.9V61.2c5.5,0,10-4.5,10-10v-30
			c0-5.5-4.5-10-10-10h0c-2.5,0-4.7,0.9-6.4,2.3c-0.8-0.2-1.6-0.3-2.4-0.3h0c-8.5,0-15.5,6.6-15.9,15.1l-4.9,93.5
			c-0.2,3.6,1.4,6.9,4.2,9l39.4,40.4c3.9,3.9,10.2,3.9,14.1,0l2.9-2.9c1.2-1.2,2.1-2.7,2.5-4.3c1.7-0.4,3.4-1.3,4.7-2.6l2.9-2.9
			C119.4,154.5,119.4,148.2,115.5,144.3z"/>
		<path class="st1" d="M62.4,151v-10.6c0-0.7-0.5-1.2-1.2-1.2h-3.6c-0.7,0-1.2,0.5-1.2,1.2V151c0,0.7,0.5,1.2,1.2,1.2h3.6
			C61.8,152.2,62.4,151.6,62.4,151z"/>
		<path class="st1" d="M61.4,152.2l-3.9,58.4c-0.1,0.9-0.8,1.6-1.7,1.6h-0.7c-1,0-1.7-0.8-1.7-1.8l3.9-58.2H61.4z"/>
	</g>
	<path class="st1" d="M202.3,100l4.4-56.1c0.1-1,1.1-1.9,2.3-1.9l0,0c1.4,0,2.4,1,2.3,2.1l-4.4,56.1c-0.1,1-1.1,1.8-2.3,1.8h-0.1
		C203.2,102.1,202.2,101.2,202.3,100z"/>
	<g>
		<path class="st1" d="M205.9,114.7L205.9,114.7c-1.7,1.7-4.3,1.7-6,0l-9.3-9.3l-9.3-9.3c-1.7-1.7-1.7-4.3,0-6v0
			c1.7-1.7,4.3-1.7,6,0l9.3,9.3l9.3,9.3C207.5,110.3,207.5,113,205.9,114.7z"/>
		<path class="st1" d="M182.4,103.1c1.7-1.5,4.2-1.3,5.7,0.4l8.3,9.3l8.1,9.1c0,0,0.2,0.2,0.2,0.2c1.5,1.6,1.3,4.2-0.3,5.7l0,0
			c-1.7,1.5-4.2,1.3-5.7-0.4l-8.3-9.3l-8.1-9.1c0,0-0.2-0.2-0.2-0.2C180.6,107.1,180.8,104.6,182.4,103.1L182.4,103.1z"/>
		<path class="st1" d="M182.1,116.4c1.7-1.3,4.1-1,5.3,0.7l7.3,9.3l7.1,9.1c0,0,0.2,0.2,0.2,0.2c1.3,1.6,1,4-0.7,5.3l0,0
			c-1.7,1.3-4.1,1-5.3-0.7l-7.3-9.3l-7.1-9.1c0,0-0.2-0.2-0.2-0.2C180.1,120,180.4,117.7,182.1,116.4L182.1,116.4z"/>
		<path class="st1" d="M180.2,129.6c1.7-1.1,3.9-0.6,5,1.1l6.3,9.3l6.1,9.1c0,0,0.2,0.2,0.2,0.2c1.1,1.6,0.6,3.9-1,5l0,0
			c-1.7,1.1-3.9,0.6-5-1.1l-6.3-9.3l-6.1-9.1c0,0-0.2-0.2-0.2-0.2C178.1,132.9,178.6,130.7,180.2,129.6L180.2,129.6z"/>
		<path class="st1" d="M177.1,142.6c1.7-0.9,3.8-0.3,4.7,1.4l5.2,9.3l5,9.1c0,0,0.2,0.2,0.1,0.2c0.9,1.6,0.3,3.7-1.4,4.6h0
			c-1.7,0.9-3.8,0.3-4.7-1.4l-5.2-9.3l-5-9.1c0,0-0.2-0.2-0.1-0.2C174.8,145.6,175.4,143.5,177.1,142.6L177.1,142.6z"/>
		<path class="st1" d="M172.7,155.3c1.7-0.7,3.6,0.1,4.3,1.8l4.2,9.3l4,9.1c0,0,0.1,0.2,0.1,0.2c0.7,1.6,0,3.5-1.7,4.3l0,0
			c-1.7,0.7-3.6-0.1-4.3-1.8l-4.2-9.3l-4-9.1c0,0-0.1-0.2-0.1-0.2C170.3,157.9,171.1,156,172.7,155.3L172.7,155.3z"/>
		<path class="st1" d="M167.3,167.3c1.7-0.5,3.5,0.4,4,2.1l3.2,9.3l3,9.1c0,0,0.1,0.2,0.1,0.2c0.5,1.6-0.4,3.4-2,3.9l0,0
			c-1.7,0.5-3.5-0.4-4-2.1l-3.2-9.3l-3-9.1c0,0-0.1-0.2-0.1-0.2C164.8,169.6,165.7,167.8,167.3,167.3L167.3,167.3z"/>
		<path class="st1" d="M161.1,178.6c1.7-0.3,3.3,0.8,3.7,2.5l2.2,9.3l2,9.1c0,0,0.1,0.2,0,0.2c0.3,1.6-0.7,3.2-2.4,3.6l0,0
			c-1.7,0.3-3.3-0.8-3.7-2.5l-2.2-9.3l-2-9.1c0,0-0.1-0.2,0-0.2C158.4,180.5,159.4,178.9,161.1,178.6L161.1,178.6z"/>
		<path class="st1" d="M154.1,188.9c1.7-0.1,3.2,1.1,3.3,2.8l1.1,9.3l1,9.1c0,0,0.1,0.2,0,0.2c0.1,1.6-1.1,3-2.7,3.2h0
			c-1.7,0.1-3.2-1.1-3.3-2.8l-1.1-9.3l-1-9.1c0,0-0.1-0.2,0-0.2C151.3,190.5,152.4,189.1,154.1,188.9L154.1,188.9z"/>
		<path class="st1" d="M146.6,198.1c1.7,0.1,3.1,1.5,3,3.2l0.1,9.3l0,9.1c0,0,0,0.2,0,0.2c-0.1,1.6-1.4,2.9-3.1,2.9h0
			c-1.7-0.1-3.1-1.5-3-3.2l-0.1-9.3l0-9.1c0,0,0-0.2,0-0.2C143.5,199.4,144.9,198.1,146.6,198.1L146.6,198.1z"/>
		<path class="st1" d="M138.6,205.9c1.7,0.2,2.9,1.8,2.7,3.5l-0.9,9.2l-1,9.1c0,0,0,0.2,0,0.2c-0.2,1.6-1.7,2.7-3.4,2.5h0
			c-1.7-0.2-2.9-1.8-2.7-3.5l0.9-9.2l1-9.1c0,0,0-0.2,0-0.2C135.4,206.9,136.9,205.7,138.6,205.9L138.6,205.9z"/>
		<path class="st1" d="M130.3,212.3c1.7,0.4,2.8,2.2,2.3,3.9l-2,9.2l-2.1,9.1c-0.1,0.1,0,0.2-0.1,0.2c-0.4,1.6-2.1,2.6-3.7,2.2l0,0
			c-1.7-0.4-2.8-2.2-2.3-3.9l2-9.2l2.1-9.1c0.1-0.1,0-0.2,0.1-0.2C127,212.9,128.7,211.9,130.3,212.3L130.3,212.3z"/>
		<path class="st1" d="M122,216.9c1.7,0.6,2.6,2.5,2,4.3l-3,9.2l-3.1,9.1c-0.1,0.1,0,0.2-0.1,0.2c-0.6,1.6-2.4,2.4-4.1,1.8l0,0
			c-1.7-0.6-2.6-2.5-2-4.3l3-9.2l3.1-9.1c0.1-0.1,0-0.2,0.1-0.2C118.5,217.2,120.3,216.4,122,216.9L122,216.9z"/>
		<path class="st1" d="M113.7,219.7c1.7,0.8,2.5,2.9,1.7,4.6l-4,9.2l-4.1,9.1c-0.1,0.1-0.1,0.2-0.1,0.2c-0.8,1.6-2.7,2.2-4.4,1.5h0
			c-1.7-0.8-2.5-2.9-1.7-4.6l4-9.2l4.1-9.1c0.1-0.1,0.1-0.2,0.1-0.2C110.1,219.7,112,219,113.7,219.7L113.7,219.7z"/>
		<path class="st1" d="M105.5,220.4c1.7,1,2.3,3.2,1.3,5l-5,9.2l-5.1,9.1c-0.1,0.1-0.1,0.2-0.2,0.2c-1.2,1.4-3.1,2.1-4.8,1.1h0
			c-1.7-1-2.3-3.2-1.3-5l5-9.2l5.1-9.1c0.1-0.1,0.1-0.2,0.2-0.2C102,220.2,103.9,219.5,105.5,220.4L105.5,220.4z"/>
		<path class="st1" d="M97.7,218.9c1.7,1.2,2.2,3.6,1,5.3l-6.1,9.2l-6.1,9.1c-0.1,0.1-0.1,0.2-0.2,0.2c-1.4,1.4-3.4,1.9-5.1,0.8h0
			c-1.7-1.2-2.2-3.6-1-5.3l6.1-9.2l6.1-9.1c0.1-0.1,0.1-0.2,0.2-0.2C94,218.3,96.1,217.8,97.7,218.9L97.7,218.9z"/>
		<path class="st1" d="M90.4,215c1.8,1.4,2.1,3.9,0.7,5.7l-7.1,9.2l-7.1,9.1c-0.1,0.1-0.1,0.2-0.2,0.2c-1.5,1.4-3.8,1.8-5.4,0.4h0
			c-1.8-1.4-2.1-3.9-0.7-5.7l7.1-9.2l7.1-9.1c0.1-0.1,0.1-0.2,0.2-0.2C86.5,214,88.8,213.7,90.4,215L90.4,215z"/>
		<path class="st1" d="M83.8,208.4c1.8,1.6,1.9,4.3,0.3,6l-8.1,9.2l-8.1,9.2c-0.1,0.1-0.2,0.2-0.2,0.2c-1.6,1.5-4.1,1.6-5.8,0.1h0
			c-1.8-1.6-1.9-4.3-0.3-6l8.1-9.2l8.1-9.2c0.1-0.1,0.2-0.2,0.2-0.2C79.6,207,82.1,206.9,83.8,208.4L83.8,208.4z"/>
		<path class="st1" d="M53.2,223.8L53.2,223.8c-1.8-1.8-1.8-4.6,0-6.4l9.2-9.2l9.2-9.2c1.8-1.8,4.6-1.8,6.4,0h0
			c1.8,1.8,1.8,4.6,0,6.4l-9.2,9.2l-9.2,9.2C57.9,225.5,55,225.5,53.2,223.8z"/>
	</g>
</g>
</svg>
