<?xml version="1.0" encoding="utf-8"?>
<!-- Generator: Adobe Illustrator 21.0.0, SVG Export Plug-In . SVG Version: 6.00 Build 0)  -->
<svg version="1.1" id="Layer_1" xmlns="http://www.w3.org/2000/svg" xmlns:xlink="http://www.w3.org/1999/xlink" x="0px" y="0px"
	 viewBox="0 0 256 256" style="enable-background:new 0 0 256 256;" xml:space="preserve">
<style type="text/css">
	.st0{fill:none;}
	.st1{display:none;}
	.st2{display:inline;}
	.st3{fill:#FFFFFF;}
</style>
<g>
	<rect class="st0" width="256" height="256"/>
</g>
<g id="Handset" class="st1">
	<g class="st2">
		<path class="st3" d="M161.9,160.6l-21.2-21.2c-3.9-3.9-10.2-3.9-14.1,0l-2.9,2.9l-2.9-2.9V77.5c5.5,0,10-4.5,10-10v-30
			c0-5.5-4.5-10-10-10l0,0c-2.5,0-4.7,0.9-6.4,2.3c-0.8-0.2-1.6-0.3-2.4-0.3l0,0c-8.5,0-15.5,6.6-15.9,15.1l-4.9,93.5
			c-0.2,3.6,1.4,6.9,4.2,9l39.4,40.4c3.9,3.9,10.2,3.9,14.1,0l2.9-2.9c1.2-1.2,2.1-2.7,2.5-4.3c1.7-0.4,3.4-1.3,4.7-2.6l2.9-2.9
			C165.8,170.8,165.8,164.5,161.9,160.6z"/>
		<path class="st3" d="M108.8,167.3v-10.6c0-0.7-0.5-1.2-1.2-1.2H104c-0.7,0-1.2,0.5-1.2,1.2v10.6c0,0.7,0.5,1.2,1.2,1.2h3.6
			C108.2,168.5,108.8,167.9,108.8,167.3z"/>
		<path class="st3" d="M107.8,168.5l-3.9,58.4c-0.1,0.9-0.8,1.6-1.7,1.6h-0.7c-1,0-1.7-0.8-1.7-1.8l3.9-58.2H107.8L107.8,168.5z"/>
	</g>
</g>
<g class="st1">
	<path class="st2" d="M88.8,155.6c0.9,0.6,2.2,0.4,2.9-0.5c8.2-11.1,21.4-18.4,36.3-18.4c14.9,0,28.1,7.2,36.3,18.4
		c0.7,0.9,2,1.1,2.9,0.5l4.7-3.2c1-0.7,1.3-2.1,0.5-3.1c-10-13.7-26.2-22.6-44.4-22.6s-34.4,8.9-44.4,22.6c-0.7,1-0.5,2.4,0.5,3.1
		L88.8,155.6z"/>
	<path class="st2" d="M65.9,140.3c1,0.7,2.3,0.4,3-0.6c13.2-18.5,34.7-30.6,59.1-30.6s45.9,12.1,59.1,30.6c0.7,1,2,1.2,3,0.6
		l4.7-3.2c1-0.7,1.3-2,0.6-3c-15-21.1-39.6-35-67.4-35c-27.8,0-52.4,13.8-67.4,35c-0.7,1-0.4,2.3,0.6,3L65.9,140.3z"/>
	<path class="st2" d="M43.1,125.1c1,0.7,2.3,0.4,3-0.6c18.1-25.9,48.1-42.8,82-42.8c33.9,0,63.9,16.9,82,42.8c0.7,1,2,1.2,3,0.6
		l4.7-3.2c1-0.7,1.3-2,0.6-3c-19.9-28.5-52.9-47.2-90.3-47.2s-70.4,18.7-90.3,47.2c-0.7,1-0.4,2.3,0.6,3L43.1,125.1z"/>
	<circle class="st2" cx="128" cy="171.4" r="12"/>
</g>
<g>
	<path class="st3" d="M62.1,23.9c0.3,1.6,1.8,2.6,3.4,2.3c41.7-7.4,86.2,4.8,118.8,36.3l9.6-9.6C158,18,108.9,4.6,62.9,12.8
		c-1.6,0.3-2.7,1.9-2.3,3.5L62.1,23.9z"/>
	<path class="st3" d="M207.3,92c16.3,28.2,21.7,61,16.2,92.2c-0.3,1.6,0.7,3.1,2.3,3.4l7.6,1.5c1.6,0.3,3.2-0.7,3.5-2.3
		c6.3-35.6-0.2-73-19.6-104.7L207.3,92z"/>
</g>
<g>
	<path class="st3" d="M74,56c0.3,1.6,1.8,2.6,3.4,2.3c29.9-5,61.6,3.7,84.9,26.1l9.6-9.6C145.3,49,109,39.1,74.9,44.9
		c-1.6,0.3-2.7,1.9-2.3,3.5L74,56z"/>
	<path class="st3" d="M184.1,115.2c8.1,18,10.5,37.9,7.3,57c-0.3,1.6,0.7,3.1,2.3,3.4l7.6,1.5c1.6,0.3,3.2-0.7,3.5-2.3
		c4-23.5,0.6-48.1-10.4-69.8L184.1,115.2z"/>
</g>
<g>
	<path class="st3" d="M158.9,140.3c1.2,6.6,1.3,13.4,0.3,20c-0.2,1.5,0.8,3,2.3,3.3l7.6,1.5c1.7,0.3,3.2-0.8,3.5-2.5
		c1.8-11.2,1-22.8-2.4-33.7L158.9,140.3z"/>
	<path class="st3" d="M86,88.1c0.3,1.5,1.7,2.6,3.3,2.3c18-2.7,37,2.5,51.2,15.8l9.7-9.7C132.7,80.1,109.2,73.6,86.9,77
		c-1.7,0.3-2.8,1.8-2.5,3.5L86,88.1z"/>
</g>
<g>
	<path class="st3" d="M79.8,166.9c1.4-2.7,3.4-5.1,6.1-6.7c0.5-0.3,0.9-0.6,1.4-0.8l15.3-15.3l-0.9-0.2c-0.7-0.1-1.4-0.3-2-0.4
		l4.6-20c0.2-1,1.3-1.8,2.3-1.5l4.7,1.1c0.7,0.2,1.2,0.7,1.4,1.4c0.1,0.4,0.1,0.7,0,1l-2.5,10.9l14.1-14.1l0.1-0.5
		c1.3-5.5-2.5-11.7-8.1-12.9l-7.7-1.7c-5.9-1.4-11.5,2.2-12.8,8.1l-6.7,28.6c-3.2,0.7-6.2,2-9.1,3.7c-6.5,4.2-11,10.5-12.6,18
		l-3.9,17.6L79.8,166.9z"/>
	<path class="st3" d="M120.6,202.4l5.3-23.7c0.4-2,0.7-4,0.7-6l-15,15l-2.1,9.5c-0.9,4.3-3.6,8.2-7.5,10.6
		c-3.8,2.4-8.4,3.2-12.8,2.3l-11.3,11.3c1.9,0.9,4,1.7,6.1,2.1l2.4,0.6c0.9,0.2,1.8,0.3,2.7,0.5c3.3,9,8.8,16.4,16.2,22
		c0.6,4,4.1,7,8.2,6.9c4.5-0.1,8.1-3.8,8.1-8.3c-0.1-4.5-3.8-8.1-8.3-8.1c-1.5,0-2.9,0.4-4.1,1.2c-4.6-3.8-8.1-8.6-10.7-14.2
		c3.3-0.7,6.5-2,9.5-3.8C114.5,216.2,118.9,209.8,120.6,202.4z"/>
</g>
<path class="st3" d="M37.5,241.3l-5.9-5.8c-1.4-1.3-1.4-3.5,0-4.7L233.4,29.1c1.3-1.4,3.5-1.4,4.7,0l5.8,5.9c1.3,1.4,1.3,3.5,0,4.6
	L42.2,241.3C41,242.7,38.9,242.7,37.5,241.3z"/>
</svg>
