<?xml version="1.0" encoding="utf-8"?>
<!-- Generator: Adobe Illustrator 21.0.0, SVG Export Plug-In . SVG Version: 6.00 Build 0)  -->
<svg version="1.1" id="Layer_1" xmlns="http://www.w3.org/2000/svg" xmlns:xlink="http://www.w3.org/1999/xlink" x="0px" y="0px"
	 viewBox="0 0 256 256" style="enable-background:new 0 0 256 256;" xml:space="preserve">
<style type="text/css">
	.st0{fill:none;}
	.st1{fill:#FFFFFF;}
</style>
<g>
	<rect class="st0" width="256" height="256"/>
</g>
<g id="Handset">
	<g>
		<path class="st1" d="M161.9,160.6l-21.2-21.2c-3.9-3.9-10.2-3.9-14.1,0l-2.9,2.9l-2.9-2.9V77.5c5.5,0,10-4.5,10-10v-30
			c0-5.5-4.5-10-10-10l0,0c-2.5,0-4.7,0.9-6.4,2.3c-0.8-0.2-1.6-0.3-2.4-0.3l0,0c-8.5,0-15.5,6.6-15.9,15.1l-4.9,93.5
			c-0.2,3.6,1.4,6.9,4.2,9l39.4,40.4c3.9,3.9,10.2,3.9,14.1,0l2.9-2.9c1.2-1.2,2.1-2.7,2.5-4.3c1.7-0.4,3.4-1.3,4.7-2.6l2.9-2.9
			C165.8,170.8,165.8,164.5,161.9,160.6z"/>
		<path class="st1" d="M108.8,167.3v-10.6c0-0.7-0.5-1.2-1.2-1.2H104c-0.7,0-1.2,0.5-1.2,1.2v10.6c0,0.7,0.5,1.2,1.2,1.2h3.6
			C108.2,168.5,108.8,167.9,108.8,167.3z"/>
		<path class="st1" d="M107.8,168.5l-3.9,58.4c-0.1,0.9-0.8,1.6-1.7,1.6h-0.7c-1,0-1.7-0.8-1.7-1.8l3.9-58.2L107.8,168.5
			L107.8,168.5z"/>
	</g>
</g>
</svg>
