<?xml version="1.0" encoding="utf-8"?>
<!-- Generator: Adobe Illustrator 21.0.0, SVG Export Plug-In . SVG Version: 6.00 Build 0)  -->
<svg version="1.1" id="Layer_1" xmlns="http://www.w3.org/2000/svg" xmlns:xlink="http://www.w3.org/1999/xlink" x="0px" y="0px"
	 viewBox="0 0 256 256" style="enable-background:new 0 0 256 256;" xml:space="preserve">
<style type="text/css">
	.st0{fill:none;}
	.st1{fill:#FFFFFF;}
</style>
<g>
	<rect class="st0" width="256" height="256"/>
</g>
<path class="st1" d="M57.5,202.4l-3.9-3.9c-0.9-0.9-0.9-2.3,0-3.1L195.4,53.6c0.9-0.9,2.3-0.9,3.1,0l3.9,3.9c0.9,0.9,0.9,2.3,0,3.1
	L60.6,202.4C59.8,203.3,58.4,203.3,57.5,202.4z"/>
<g>
	<path class="st1" d="M120.8,107.7V77.5c5.5,0,10-4.5,10-10v-30c0-5.5-4.5-10-10-10c-2.5,0-4.7,0.9-6.4,2.3
		c-0.8-0.2-1.6-0.3-2.4-0.3c-8.5,0-15.5,6.6-15.9,15.1l-4.9,92.7L120.8,107.7z"/>
	<path class="st1" d="M142.4,141.1l-26.8,26.8l19.2,19.6c3.9,3.9,10.2,3.9,14.1,0l2.9-2.9c1.2-1.2,2.1-2.7,2.5-4.3
		c1.7-0.4,3.4-1.3,4.7-2.6l2.9-2.9c3.9-4,3.9-10.3,0-14.2L142.4,141.1z"/>
	<path class="st1" d="M102.9,180.6l-3.1,46.1c0,1,0.7,1.8,1.7,1.8h0.7c0.9,0,1.6-0.7,1.7-1.6l3.4-50.7L102.9,180.6z"/>
</g>
</svg>
