<?xml version="1.0" encoding="utf-8"?>
<!-- Generator: Adobe Illustrator 18.1.1, SVG Export Plug-In . SVG Version: 6.00 Build 0)  -->
<svg version="1.1" xmlns="http://www.w3.org/2000/svg" xmlns:xlink="http://www.w3.org/1999/xlink" x="0px" y="0px"
	 viewBox="0 0 256 256" enable-background="new 0 0 256 256" xml:space="preserve">
<g id="bg">
</g>
<g id="Layer_3" display="none">
	<rect x="-1293.5" y="-292.3" display="inline" width="2665.9" height="563.3"/>
</g>
<g id="soldier">
	<g>
		<path fill="#FFFFFF" d="M109.5,116.9c-4.5-0.8-5.7-6.7-2-9.3c5.2-3.7,11.7-9.3,13.7-15.3c3.6-10.7,15.8-31.5,51.1-27.9
			c35.3,3.6,53.3,29.6,51.5,46.5l-3.5,34c-0.1,1.2-0.9,2.1-2,2.5c-4.9,1.7-19.7,5.6-44.8,2.6c-31.3-3.7-20.3-28.2-29.2-29.1
			C135.6,119.9,120.6,118.9,109.5,116.9z"/>
	</g>
	<g>
		<g>
			<g>
				<path fill="#FFFFFF" d="M150.1,190.8c-6.8-1.6-12.2-5.3-15.8-10.9l3.8-2.5c3,4.6,7.4,7.6,13.1,9L150.1,190.8z"/>
			</g>
			<g>
				<g>
					<path fill="#FFFFFF" d="M161.5,205.9c-6.5-1.7-11.5-6.9-13.1-13.4l-0.4-1.5c-1.1-4.7-0.3-9.6,2.2-13.8
						c2.6-4.2,6.6-7.1,11.3-8.2l15-3.6c2.9-0.7,6-0.7,8.9,0.1c6.5,1.7,11.5,6.9,13.1,13.4l0.4,1.5c1.1,4.7,0.3,9.6-2.2,13.8
						c-2.6,4.2-6.6,7.1-11.3,8.2l-15,3.6C167.5,206.7,164.4,206.7,161.5,205.9z M184.3,169.9c-2.2-0.6-4.5-0.6-6.7-0.1l-15,3.6
						c-3.5,0.8-6.6,3-8.5,6.2c-1.9,3.1-2.5,6.8-1.7,10.4l0.4,1.5c1.2,4.9,4.9,8.8,9.8,10.1c2.2,0.6,4.5,0.6,6.7,0.1l15-3.6
						c3.5-0.8,6.6-3,8.5-6.2c1.9-3.1,2.5-6.8,1.7-10.4l-0.4-1.5C193,175.1,189.2,171.2,184.3,169.9z"/>
				</g>
			</g>
			<g>
				<circle fill="#FFFFFF" cx="136.2" cy="177.6" r="4.2"/>
			</g>
		</g>
		<g>
			<path fill="#FFFFFF" d="M223.8,175.1l-1.1-4.6c-0.8-3.3-4.5-5.5-7.8-4.7l-20.9,5.2l1,4.4l21-5.2c0.3-0.1,0.6-0.1,1,0
				c0.7,0.2,1.2,0.7,1.4,1.4l1.1,4.6c0.3,1-0.4,2.1-1.4,2.3l-21.1,5.2l1,4.4l21.1-5.3C222.6,182,224.7,178.6,223.8,175.1z"/>
		</g>
	</g>
	<path fill="#FFFFFF" d="M158.9,165.6l19.6-4.8c0.9-0.6-1.6-2.4-6-3.2c-23.8-3-28.4-17.4-30.7-27.3c-0.3-1.2-1.3-2.2-2.6-2.3
		c-5.8-0.6-23.8-2.5-23.8-2.5l-6.4,10.4c-1.2,1.9,0,4.3,2.2,4.6l6.5,0.7c1.2,3.7,2.7,7.3,4.6,10.7c0.8,1.4,9.2,13.8,19.3,19.5
		c1.9,1,3.8,2,5.8,2.8C150.3,170.1,154.3,167.2,158.9,165.6z"/>
	<g>
		<path fill="#FFFFFF" d="M103.4,159.8c0,0-17.5,4.8-23.1,12.3c22.6,0,30.9-4.3,31.4-5.8c0.1-0.3-0.1-0.5-0.4-0.5
			C109.7,166.1,101.2,165.4,103.4,159.8z"/>
	</g>
	<ellipse fill="#FFFFFF" cx="81.3" cy="154.7" rx="23.2" ry="17.5"/>
</g>
</svg>
