<?xml version="1.0" encoding="utf-8"?>
<!-- Generator: Adobe Illustrator 18.1.1, SVG Export Plug-In . SVG Version: 6.00 Build 0)  -->
<svg version="1.1" xmlns="http://www.w3.org/2000/svg" xmlns:xlink="http://www.w3.org/1999/xlink" x="0px" y="0px"
	 viewBox="0 0 256 256" enable-background="new 0 0 256 256" xml:space="preserve">
<g id="bg">
</g>
<g id="Layer_3" display="none">
	<rect x="-993.5" y="-0.3" display="inline" width="2665.9" height="563.3"/>
</g>
<g id="soldier">
	<path fill="#FFFFFF" d="M156.7,65c-35.1,5.6-41.4,28.9-42.2,40.2c-0.4,6.3-5.2,13.4-9.3,18.3c-2.9,3.5-0.2,8.9,4.3,8.5
		c11.2-0.9,25.9-3.8,34.8-5.2c6.9-1.1,5.8,14.6,19.6,19.6l2.1,7.7c0.1,0.3,0.2,0.5,0.2,0.8c-12.8-2.5-18.4-11.5-22-18.3
		c-0.6-1.1-1.8-1.7-3.1-1.5c-5.7,0.9-23.7,3.9-23.7,3.9l-3.5,11.5c-0.6,2.1,1.2,4.2,3.3,3.8l6.5-1c2.1,3.3,4.5,6.4,7.3,9.1
		c1.1,1.1,12.4,11,23.7,13.9c7.1,1.8,14.7,2.5,22.5,1.2c16.4-2.6,29.8-12.4,37.6-25.6c1.4-2.4-1-5.3-3.6-4.3c-2.4,0.9-5.1,1.8-8,2.7
		c0.1-1.9,0-3.9-0.6-5.9l-0.5-1.8c11.1-3.5,17.6-7.3,20.4-9.1c1-0.6,1.5-1.8,1.3-3l-5.4-33.7C215.8,79.8,191.8,59.3,156.7,65z
		 M198.4,145.3c2,7.3-2.4,14.8-9.7,16.8l-1.5,0.4c-3.9,1.1-7.9,0.2-11.1-1.9c-3.3,3.2-8.6,7.7-14.6,9.3c-0.3,0.1-0.5,0.1-0.8,0.2
		c-0.4,1.3-1.5,2.4-2.9,2.7c-2.2,0.6-4.5-0.7-5.1-3c-0.6-2.2,0.7-4.5,3-5.1c1.4-0.4,2.9,0,3.9,1c5.2-1.1,10.1-5.2,13.2-8.2
		c-1.1-1.4-1.9-3-2.4-4.8l-1.4-5.3c3.1,0.4,6.8,0.4,11.1-0.2c6.8-1,12.7-2.3,17.9-3.7L198.4,145.3z"/>
	<g>
		<g>
			<path fill="#FFFFFF" d="M132.2,201.8c0,0,0-0.1,0-0.1l-6.2-31.6c-0.4-1.7-2-3.2-4.8-3c-2.7,0.3-2.7,3.6-2.5,4.4l3.3,16.9
				c-3.4-1.6-7.8-1.6-11.1,0.8C99.7,197.6,94,202,98.3,211.2c4.8,10.4,9.6,13.6,19.5,11.7C127.5,220.9,133.9,211.6,132.2,201.8z"/>
		</g>
		<path fill="#FFFFFF" d="M104.7,214.1L104.7,214.1c-2.4,1-5.2-0.1-6.2-2.4l-3.9-9c-1-2.4,0.1-5.2,2.4-6.2l0,0
			c2.4-1,5.2,0.1,6.2,2.4l3.9,9C108.2,210.3,107.1,213.1,104.7,214.1z"/>
		<path fill="#FFFFFF" d="M111.4,208.1L111.4,208.1c-2.4,1-5.2-0.1-6.2-2.4l-3.9-9c-1-2.4,0.1-5.2,2.4-6.2l0,0
			c2.4-1,5.2,0.1,6.2,2.4l3.9,9C114.9,204.3,113.8,207.1,111.4,208.1z"/>
		<path fill="#FFFFFF" d="M118.5,202.8L118.5,202.8c-2.4,1-5.2-0.1-6.2-2.4l-3.9-9c-1-2.4,0.1-5.2,2.4-6.2h0
			c2.4-1,11.2,3.3,11.2,3.3l-1,8.1C122,198.9,120.9,201.7,118.5,202.8z"/>
	</g>
</g>
</svg>
