<?xml version="1.0" encoding="utf-8"?>
<!-- Generator: Adobe Illustrator 18.1.1, SVG Export Plug-In . SVG Version: 6.00 Build 0)  -->
<svg version="1.1" xmlns="http://www.w3.org/2000/svg" xmlns:xlink="http://www.w3.org/1999/xlink" x="0px" y="0px"
	 viewBox="0 0 256 256" enable-background="new 0 0 256 256" xml:space="preserve">
<g id="bg">
</g>
<g id="Layer_3" display="none">
	<rect x="-1593.5" y="-292.3" display="inline" width="2665.9" height="563.3"/>
</g>
<g id="soldier">
	<g>
		<g>
			<g>
				<path fill="#FFFFFF" d="M97.2,142c0.9,9.6-5.2,17.9-14.8,18.9s-18.1-6.1-19-15.7c-0.9-9.6,6.1-18.1,15.7-19
					C88.6,125.2,96.2,132.4,97.2,142z"/>
			</g>
			<g>
				<path fill="#FFFFFF" d="M93.5,141.2L93.5,141.2c-2-0.1-3.5-1.8-3.4-3.7l1.5-29c0.1-2,1.8-3.5,3.7-3.4h0c2,0.1,3.5,1.8,3.4,3.7
					l-1.5,29C97.1,139.8,95.4,141.3,93.5,141.2z"/>
			</g>
		</g>
		<g>
			<path fill="#FFFFFF" d="M75,141.6L75,141.6c-1.9,0.2-3.7-1.2-3.9-3.2l-3.4-30.7c-0.2-1.9,1.2-3.7,3.2-3.9h0
				c1.9-0.2,3.7,1.2,3.9,3.2l3.4,30.7C78.4,139.6,77,141.4,75,141.6z"/>
		</g>
		<g>
			<path fill="#FFFFFF" d="M83.2,138.5L83.2,138.5c-2,0-3.6-1.6-3.5-3.6l0.2-31.4c0-2,1.6-3.6,3.6-3.5h0c2,0,3.6,1.6,3.5,3.6
				L86.8,135C86.7,136.9,85.1,138.5,83.2,138.5z"/>
		</g>
		<g>
			<path fill="#FFFFFF" d="M113,155.9L113,155.9c0.1,2-1.4,3.6-3.4,3.7l-29,1.3c-2,0.1-3.6-1.4-3.7-3.4v0
				c-0.1-2,21.1-34.3,20.3-19.8c-0.9,17.1,12.1,14.7,12.1,14.7C111.2,152.5,112.9,154,113,155.9z"/>
		</g>
		<g>
			<path fill="#FFFFFF" d="M67.7,148.5L67.7,148.5c-1.9,0.4-3.8-0.7-4.3-2.6l-5.9-25.2c-0.4-1.9,0.7-3.8,2.6-4.3h0
				c1.9-0.4,3.8,0.7,4.3,2.6l5.9,25.2C70.8,146.1,69.6,148,67.7,148.5z"/>
		</g>
	</g>
	<g>
		<path fill="#FFFFFF" d="M110.4,103c-4.1-1.9-3.8-7.9,0.5-9.5c6-2.2,13.7-5.9,17.2-11.2c6.3-9.4,23.4-26.4,56.6-13.7
			s43.8,42.4,37.7,58.3l-12.2,31.9c-0.4,1.1-1.4,1.8-2.6,1.9c-5.1,0.3-20.4,0.3-43.9-9.1c-29.3-11.7-12.3-32.5-20.6-35.7
			C134.7,112.6,120.5,107.7,110.4,103z"/>
	</g>
	<g>
		<g>
			<path fill="#FFFFFF" d="M149.1,165.7c0,0,12.1-2.6,15.3-3.5c3.2-0.9,1-1.7-3.7-3.6c-22.3-9-23-24.2-22.6-34.4
				c0-1.3-0.7-2.4-1.9-2.9c-5.4-2.1-22.3-8.6-22.3-8.6l-8.9,8.4c-1.6,1.5-1.1,4.2,1,5l6.1,2.4c0.2,3.9,0.7,7.8,1.7,11.5
				c0.4,1.5,5.3,15.7,13.6,23.9c2.3,2.2,9.3,7.8,11.9,9.6C141.3,170.5,145.5,166.8,149.1,165.7z"/>
		</g>
	</g>
	<g>
		<g>
			<g>
				<path fill="#FFFFFF" d="M140.1,190.8c-6.8-1.6-12.2-5.3-15.8-10.9l3.8-2.5c3,4.6,7.4,7.6,13.1,9L140.1,190.8z"/>
			</g>
			<g>
				<g>
					<path fill="#FFFFFF" d="M151.5,205.9c-6.5-1.7-11.5-6.9-13.1-13.4l-0.4-1.5c-1.1-4.7-0.3-9.6,2.2-13.8
						c2.6-4.2,6.6-7.1,11.3-8.2l15-3.6c2.9-0.7,6-0.7,8.9,0.1c6.5,1.7,11.5,6.9,13.1,13.4l0.4,1.5c1.1,4.7,0.3,9.6-2.2,13.8
						c-2.6,4.2-6.6,7.1-11.3,8.2l-15,3.6C157.5,206.7,154.4,206.7,151.5,205.9z M174.3,169.9c-2.2-0.6-4.5-0.6-6.7-0.1l-15,3.6
						c-3.5,0.8-6.6,3-8.5,6.2c-1.9,3.1-2.5,6.8-1.7,10.4l0.4,1.5c1.2,4.9,4.9,8.8,9.8,10.1c2.2,0.6,4.5,0.6,6.7,0.1l15-3.6
						c3.5-0.8,6.6-3,8.5-6.2s2.5-6.8,1.7-10.4l-0.4-1.5C183,175.1,179.2,171.2,174.3,169.9z"/>
				</g>
			</g>
			<g>
				<circle fill="#FFFFFF" cx="126.2" cy="177.6" r="4.2"/>
			</g>
		</g>
		<g>
			<path fill="#FFFFFF" d="M213.8,175.1l-1.1-4.6c-0.8-3.3-4.5-5.5-7.8-4.7l-20.9,5.2l1,4.4l21-5.2c0.3-0.1,0.6-0.1,1,0
				c0.7,0.2,1.2,0.7,1.4,1.4l1.1,4.6c0.3,1-0.4,2.1-1.4,2.3l-21.1,5.2l1,4.4l21.1-5.3C212.6,182,214.7,178.6,213.8,175.1z"/>
		</g>
	</g>
</g>
</svg>
