<?xml version="1.0" encoding="utf-8"?>
<!-- Generator: Adobe Illustrator 18.1.1, SVG Export Plug-In . SVG Version: 6.00 Build 0)  -->
<svg version="1.1" xmlns="http://www.w3.org/2000/svg" xmlns:xlink="http://www.w3.org/1999/xlink" x="0px" y="0px"
	 viewBox="0 0 256 256" enable-background="new 0 0 256 256" xml:space="preserve">
<g id="bg">
</g>
<g id="Layer_3" display="none">
	<rect x="-993.5" y="-292.3" display="inline" width="2665.9" height="563.3"/>
</g>
<g id="soldier">
	<path fill="#FFFFFF" d="M109.6,131.9c-4.6,0.4-7.3-5-4.3-8.5c4.1-4.9,8.9-12,9.3-18.3c0.7-11.3,7.1-34.6,42.2-40.2
		s59.1,14.8,61.8,31.6l5.4,33.7c0.2,1.2-0.3,2.3-1.3,3c-4.3,2.9-17.6,10.5-42.6,14.1c-31.2,4.5-26.9-22-35.7-20.6
		S120.8,131,109.6,131.9z"/>
	<g>
		<g>
			<g>
				<path fill="#FFFFFF" d="M150.1,190.8c-6.8-1.6-12.2-5.3-15.8-10.9l3.8-2.5c3,4.6,7.4,7.6,13.1,9L150.1,190.8z"/>
			</g>
			<g>
				<g>
					<path fill="#FFFFFF" d="M161.5,205.9c-6.5-1.7-11.5-6.9-13.1-13.4l-0.4-1.5c-1.1-4.7-0.3-9.6,2.2-13.8
						c2.6-4.2,6.6-7.1,11.3-8.2l15-3.6c2.9-0.7,6-0.7,8.9,0.1c6.5,1.7,11.5,6.9,13.1,13.4l0.4,1.5c1.1,4.7,0.3,9.6-2.2,13.8
						c-2.6,4.2-6.6,7.1-11.3,8.2l-15,3.6C167.5,206.7,164.4,206.7,161.5,205.9z M184.3,169.9c-2.2-0.6-4.5-0.6-6.7-0.1l-15,3.6
						c-3.5,0.8-6.6,3-8.5,6.2c-1.9,3.1-2.5,6.8-1.7,10.4l0.4,1.5c1.2,4.9,4.9,8.8,9.8,10.1c2.2,0.6,4.5,0.6,6.7,0.1l15-3.6
						c3.5-0.8,6.6-3,8.5-6.2c1.9-3.1,2.5-6.8,1.7-10.4l-0.4-1.5C193,175.1,189.2,171.2,184.3,169.9z"/>
				</g>
			</g>
			<g>
				<circle fill="#FFFFFF" cx="136.2" cy="177.6" r="4.2"/>
			</g>
		</g>
		<g>
			<path fill="#FFFFFF" d="M223.8,175.1l-1.1-4.6c-0.8-3.3-4.5-5.5-7.8-4.7l-20.9,5.2l1,4.4l21-5.2c0.3-0.1,0.6-0.1,1,0
				c0.7,0.2,1.2,0.7,1.4,1.4l1.1,4.6c0.3,1-0.4,2.1-1.4,2.3l-21.1,5.2l1,4.4l21.1-5.3C222.6,182,224.7,178.6,223.8,175.1z"/>
		</g>
	</g>
	<g>
		<path fill="#FFFFFF" d="M154.8,176.1c4.3-4.3,9.2-4.5,11.6-5.8c0.5-0.9,1.2-1.7,1.9-2.5l0.4-0.4l-6.4,1.5c-4,0.9-7.4,3.2-10,6.3
			c0.6,0.2,1.2,0.4,1.8,0.6C154.3,176,154.6,176.1,154.8,176.1z"/>
		<path fill="#FFFFFF" d="M160.8,165.1c0,0,20.8-4.8,23.4-5.5c2.7-0.7,3.8-5.8-3.2-4.7c-23.8,3.3-32-9.4-36.7-18.5
			c-0.6-1.1-1.8-1.7-3.1-1.5c-5.7,0.9-23.6,3.7-23.6,3.7l-3.5,11.7c-0.6,2.1,1.2,4.2,3.3,3.8l6.5-1c2.1,3.3,4.5,6.4,7.3,9.1
			c0.9,0.9,7.9,7.6,16.8,11.6C151,169.5,155.5,166.4,160.8,165.1z"/>
	</g>
	<g>
		<g>
			<path fill="#FFFFFF" d="M132.2,201.8c0,0,0-0.1,0-0.1l-6.2-31.6c-0.4-1.7-2-3.2-4.8-3c-2.7,0.3-2.7,3.6-2.5,4.4l3.3,16.9
				c-3.4-1.6-7.8-1.6-11.1,0.8C99.7,197.6,94,202,98.3,211.2c4.8,10.4,9.6,13.6,19.5,11.7C127.5,220.9,133.9,211.6,132.2,201.8z"/>
		</g>
		<path fill="#FFFFFF" d="M104.7,214.1L104.7,214.1c-2.4,1-5.2-0.1-6.2-2.4l-3.9-9c-1-2.4,0.1-5.2,2.4-6.2l0,0
			c2.4-1,5.2,0.1,6.2,2.4l3.9,9C108.2,210.3,107.1,213.1,104.7,214.1z"/>
		<path fill="#FFFFFF" d="M111.4,208.1L111.4,208.1c-2.4,1-5.2-0.1-6.2-2.4l-3.9-9c-1-2.4,0.1-5.2,2.4-6.2l0,0
			c2.4-1,5.2,0.1,6.2,2.4l3.9,9C114.9,204.3,113.8,207.1,111.4,208.1z"/>
		<path fill="#FFFFFF" d="M118.5,202.8L118.5,202.8c-2.4,1-5.2-0.1-6.2-2.4l-3.9-9c-1-2.4,0.1-5.2,2.4-6.2h0
			c2.4-1,11.2,3.3,11.2,3.3l-1,8.1C122,198.9,120.9,201.7,118.5,202.8z"/>
	</g>
</g>
</svg>
