<?xml version="1.0" encoding="utf-8"?>
<!-- Generator: Adobe Illustrator 18.1.1, SVG Export Plug-In . SVG Version: 6.00 Build 0)  -->
<svg version="1.1" xmlns="http://www.w3.org/2000/svg" xmlns:xlink="http://www.w3.org/1999/xlink" x="0px" y="0px"
	 viewBox="0 0 256 256" enable-background="new 0 0 256 256" xml:space="preserve">
<g id="bg">
</g>
<g id="Layer_3" display="none">
	<rect x="-1293.5" y="-0.3" display="inline" width="2665.9" height="563.3"/>
</g>
<g id="soldier">
	<path fill="#FFFFFF" d="M172.4,64.4c-35.3-3.6-47.5,17.2-51.1,27.9c-2,6-8.5,11.6-13.7,15.3c-3.7,2.6-2.5,8.5,2,9.3
		c11.1,2,26,3,34.9,3.9c6.9,0.7,1.8,15.6,13.9,24v7.9c0,0.3,0,0.5,0,0.8c-11.7-5.7-14.8-15.9-16.5-23.4c-0.3-1.2-1.3-2.2-2.6-2.3
		c-5.8-0.6-23.9-2.4-23.9-2.3l-6.3,10.2c-1.2,1.9,0,4.3,2.2,4.6l6.5,0.7c1.2,3.7,2.7,7.3,4.6,10.7c0.8,1.4,9.2,13.8,19.3,19.5
		c6.4,3.6,13.6,6.2,21.4,7c16.5,1.7,32-4.2,43-15c2-2,0.4-5.4-2.4-5.1c-2.5,0.3-5.4,0.4-8.4,0.5c0.6-1.8,1-3.8,1-5.9V151
		c11.6-0.5,18.9-2.5,22.1-3.6c1.1-0.4,1.9-1.4,2-2.5l3.5-34C225.6,94,207.7,68.1,172.4,64.4z M191.8,152.8c0,7.6-6.2,13.7-13.7,13.7
		h-1.6c-4.1,0-7.7-1.8-10.2-4.7c-4,2.3-10.3,5.2-16.5,5.2c-0.3,0-0.5,0-0.8,0c-0.7,1.1-2,1.9-3.5,1.9c-2.3,0-4.2-1.9-4.2-4.2
		c0-2.3,1.9-4.2,4.2-4.2c1.5,0,2.8,0.8,3.5,1.9c5.3,0.3,11.1-2.4,14.9-4.5c-0.7-1.6-1-3.4-1-5.2v-5.5c2.9,1.2,6.4,2.2,10.8,2.7
		c6.8,0.8,12.9,1.1,18.2,1.1V152.8z"/>
	<g>
		<path fill="#FFFFFF" d="M103.4,159.8c0,0-17.5,4.8-23.1,12.3c22.6,0,30.9-4.3,31.4-5.8c0.1-0.3-0.1-0.5-0.4-0.5
			C109.7,166.1,101.2,165.4,103.4,159.8z"/>
	</g>
	<ellipse fill="#FFFFFF" cx="81.3" cy="154.7" rx="23.2" ry="17.5"/>
</g>
</svg>
