<?xml version="1.0" encoding="utf-8"?>
<!-- Generator: Adobe Illustrator 18.1.1, SVG Export Plug-In . SVG Version: 6.00 Build 0)  -->
<svg version="1.1" xmlns="http://www.w3.org/2000/svg" xmlns:xlink="http://www.w3.org/1999/xlink" x="0px" y="0px"
	 viewBox="0 0 256 256" enable-background="new 0 0 256 256" xml:space="preserve">
<g id="bg">
</g>
<g id="Layer_3" display="none">
	<rect x="-1593.5" y="-0.3" display="inline" width="2665.9" height="563.3"/>
</g>
<g id="soldier">
	<path fill="#FFFFFF" d="M184.7,68.5c-33.2-12.6-50.4,4.3-56.6,13.7c-3.5,5.3-11.2,9-17.2,11.2c-4.3,1.6-4.6,7.6-0.5,9.5
		c10.2,4.8,24.4,9.7,32.7,12.8c6.5,2.5-2.3,15.6,7.2,26.8l-2.1,7.7c-0.1,0.3-0.1,0.5-0.2,0.8c-9.9-8.6-10.2-19.1-9.9-26.9
		c0-1.3-0.7-2.4-1.9-2.9c-5.4-2.1-22.5-8.5-22.5-8.5l-8.8,8.2c-1.6,1.5-1.1,4.2,1,5l6.1,2.4c0.2,3.9,0.7,7.8,1.7,11.5
		c0.4,1.5,5.3,15.7,13.6,23.9c5.3,5.1,11.5,9.5,18.8,12.3c15.5,6,32,4.2,45.4-3.4c2.4-1.4,1.8-5.1-1-5.5c-2.5-0.4-5.3-1-8.2-1.7
		c1.1-1.6,1.9-3.4,2.5-5.4l0.5-1.8c11.3,2.5,18.9,2.5,22.3,2.3c1.2-0.1,2.2-0.8,2.6-1.9l12.2-31.9
		C228.4,110.9,217.8,81.2,184.7,68.5z M180.6,158.9c-2,7.3-9.5,11.7-16.8,9.7l-1.5-0.4c-3.9-1.1-7-3.8-8.7-7.2
		c-4.4,1.2-11.3,2.4-17.3,0.7c-0.3-0.1-0.5-0.2-0.8-0.2c-1,0.9-2.5,1.3-3.9,0.9c-2.2-0.6-3.6-2.9-3-5.1c0.6-2.2,2.9-3.6,5.1-3
		c1.4,0.4,2.5,1.5,2.9,2.8c5.1,1.6,11.4,0.6,15.5-0.5c-0.2-1.7-0.1-3.5,0.3-5.3l1.4-5.3c2.5,1.9,5.6,3.7,9.7,5.4
		c6.4,2.6,12.2,4.4,17.3,5.8L180.6,158.9z"/>
	<g>
		<g>
			<g>
				<path fill="#FFFFFF" d="M97.2,142c0.9,9.6-5.2,17.9-14.8,18.9s-18.1-6.1-19-15.7c-0.9-9.6,6.1-18.1,15.7-19
					C88.6,125.2,96.2,132.4,97.2,142z"/>
			</g>
			<g>
				<path fill="#FFFFFF" d="M93.5,141.2L93.5,141.2c-2-0.1-3.5-1.8-3.4-3.7l1.5-29c0.1-2,1.8-3.5,3.7-3.4l0,0c2,0.1,3.5,1.8,3.4,3.7
					l-1.5,29C97.1,139.8,95.4,141.3,93.5,141.2z"/>
			</g>
		</g>
		<g>
			<path fill="#FFFFFF" d="M75,141.6L75,141.6c-1.9,0.2-3.7-1.2-3.9-3.2l-3.4-30.7c-0.2-1.9,1.2-3.7,3.2-3.9h0
				c1.9-0.2,3.7,1.2,3.9,3.2l3.4,30.7C78.4,139.6,77,141.4,75,141.6z"/>
		</g>
		<g>
			<path fill="#FFFFFF" d="M83.2,138.5L83.2,138.5c-2,0-3.6-1.6-3.5-3.6l0.2-31.4c0-2,1.6-3.6,3.6-3.5h0c2,0,3.6,1.6,3.5,3.6
				L86.8,135C86.7,136.9,85.1,138.5,83.2,138.5z"/>
		</g>
		<g>
			<path fill="#FFFFFF" d="M113,155.9L113,155.9c0.1,2-1.4,3.6-3.4,3.7l-29,1.3c-2,0.1-3.6-1.4-3.7-3.4v0
				c-0.1-2,21.1-34.3,20.3-19.8c-0.9,17.1,12.1,14.7,12.1,14.7C111.2,152.5,112.9,154,113,155.9z"/>
		</g>
		<g>
			<path fill="#FFFFFF" d="M67.7,148.5L67.7,148.5c-1.9,0.4-3.8-0.7-4.3-2.6l-5.9-25.2c-0.4-1.9,0.7-3.8,2.6-4.3h0
				c1.9-0.4,3.8,0.7,4.3,2.6l5.9,25.2C70.8,146.1,69.6,148,67.7,148.5z"/>
		</g>
	</g>
</g>
</svg>
